<svg xmlns="http://www.w3.org/2000/svg" viewBox="0 0 960 540" width="960" height="540" font-family="'Segoe UI', system-ui, sans-serif">
  <defs>
    <marker id="arr" markerWidth="8" markerHeight="6" refX="7" refY="3" orient="auto">
      <path d="M0,0 L0,6 L8,3 z" fill="#666"/>
    </marker>
    <marker id="arr2" markerWidth="8" markerHeight="6" refX="7" refY="3" orient="auto">
      <path d="M0,0 L0,6 L8,3 z" fill="#999"/>
    </marker>
  </defs>

  <!-- Background -->
  <rect width="960" height="540" fill="#111" rx="10"/>

  <!-- Title -->
  <text x="480" y="36" text-anchor="middle" fill="#e0e0e0" font-size="16" font-weight="700" letter-spacing="0.5">Законодательная Энтропия — Архитектура системы</text>
  <line x1="60" y1="48" x2="900" y2="48" stroke="#333" stroke-width="1"/>

  <!-- ============================================================ -->
  <!-- TABLE LAYOUT: 5 columns -->
  <!-- Col X positions: 60, 250, 440, 630, 780 -->
  <!-- ============================================================ -->

  <!-- Column headers row -->
  <rect x="60"  y="62" width="170" height="32" rx="4" fill="#222"/>
  <rect x="240" y="62" width="180" height="32" rx="4" fill="#222"/>
  <rect x="430" y="62" width="180" height="32" rx="4" fill="#222"/>
  <rect x="620" y="62" width="180" height="32" rx="4" fill="#222"/>
  <rect x="810" y="62" width="130" height="32" rx="4" fill="#222"/>

  <text x="145"  y="83" text-anchor="middle" fill="#aaa" font-size="11" font-weight="700" letter-spacing="0.8">ИСТОЧНИК</text>
  <text x="330"  y="83" text-anchor="middle" fill="#aaa" font-size="11" font-weight="700" letter-spacing="0.8">RUST  :3001</text>
  <text x="520"  y="83" text-anchor="middle" fill="#aaa" font-size="11" font-weight="700" letter-spacing="0.8">PYTHON  :8000</text>
  <text x="710"  y="83" text-anchor="middle" fill="#aaa" font-size="11" font-weight="700" letter-spacing="0.8">JAVA  :8080</text>
  <text x="875"  y="83" text-anchor="middle" fill="#aaa" font-size="11" font-weight="700" letter-spacing="0.8">REACT  :80</text>

  <!-- Separator -->
  <line x1="60" y1="96" x2="940" y2="96" stroke="#333" stroke-width="1"/>

  <!-- ============================================================ -->
  <!-- ROW: Role -->
  <!-- ============================================================ -->
  <text x="145"  y="116" text-anchor="middle" fill="#888" font-size="9" font-weight="600" letter-spacing="0.6">РОЛЬ</text>
  <text x="330"  y="116" text-anchor="middle" fill="#888" font-size="9" font-weight="600" letter-spacing="0.6">РОЛЬ</text>
  <text x="520"  y="116" text-anchor="middle" fill="#888" font-size="9" font-weight="600" letter-spacing="0.6">РОЛЬ</text>
  <text x="710"  y="116" text-anchor="middle" fill="#888" font-size="9" font-weight="600" letter-spacing="0.6">РОЛЬ</text>
  <text x="875"  y="116" text-anchor="middle" fill="#888" font-size="9" font-weight="600" letter-spacing="0.6">РОЛЬ</text>

  <text x="145"  y="133" text-anchor="middle" fill="#e0e0e0" font-size="12" font-weight="600">Данные НПА</text>
  <text x="330"  y="133" text-anchor="middle" fill="#e0e0e0" font-size="12" font-weight="600">Парсер + Граф</text>
  <text x="520"  y="133" text-anchor="middle" fill="#e0e0e0" font-size="12" font-weight="600">ML Анализ</text>
  <text x="710"  y="133" text-anchor="middle" fill="#e0e0e0" font-size="12" font-weight="600">Оркестратор</text>
  <text x="875"  y="133" text-anchor="middle" fill="#e0e0e0" font-size="12" font-weight="600">Интерфейс</text>

  <line x1="60" y1="144" x2="940" y2="144" stroke="#2a2a2a" stroke-width="1"/>

  <!-- ============================================================ -->
  <!-- ROW: Stack -->
  <!-- ============================================================ -->
  <text x="145"  y="162" text-anchor="middle" fill="#888" font-size="9" font-weight="600" letter-spacing="0.6">СТЕК</text>
  <text x="330"  y="162" text-anchor="middle" fill="#888" font-size="9" font-weight="600" letter-spacing="0.6">СТЕК</text>
  <text x="520"  y="162" text-anchor="middle" fill="#888" font-size="9" font-weight="600" letter-spacing="0.6">СТЕК</text>
  <text x="710"  y="162" text-anchor="middle" fill="#888" font-size="9" font-weight="600" letter-spacing="0.6">СТЕК</text>
  <text x="875"  y="162" text-anchor="middle" fill="#888" font-size="9" font-weight="600" letter-spacing="0.6">СТЕК</text>

  <text x="145"  y="180" text-anchor="middle" fill="#c0c0c0" font-size="11">adilet.zan.kz</text>
  <text x="145"  y="196" text-anchor="middle" fill="#c0c0c0" font-size="11">HTML / REST</text>

  <text x="330"  y="180" text-anchor="middle" fill="#c0c0c0" font-size="11">Rust · Tokio · Axum</text>
  <text x="330"  y="196" text-anchor="middle" fill="#c0c0c0" font-size="11">SQLx · SQLite</text>

  <text x="520"  y="180" text-anchor="middle" fill="#c0c0c0" font-size="11">Python · FastAPI</text>
  <text x="520"  y="196" text-anchor="middle" fill="#c0c0c0" font-size="11">sentence-transformers</text>

  <text x="710"  y="180" text-anchor="middle" fill="#c0c0c0" font-size="11">Java · Spring WebFlux</text>
  <text x="710"  y="196" text-anchor="middle" fill="#c0c0c0" font-size="11">WebClient · Cache</text>

  <text x="875"  y="180" text-anchor="middle" fill="#c0c0c0" font-size="11">React · Vite</text>
  <text x="875"  y="196" text-anchor="middle" fill="#c0c0c0" font-size="11">Tailwind · Zustand</text>

  <line x1="60" y1="208" x2="940" y2="208" stroke="#2a2a2a" stroke-width="1"/>

  <!-- ============================================================ -->
  <!-- ROW: Functions -->
  <!-- ============================================================ -->
  <text x="145"  y="226" text-anchor="middle" fill="#888" font-size="9" font-weight="600" letter-spacing="0.6">ФУНКЦИИ</text>
  <text x="330"  y="226" text-anchor="middle" fill="#888" font-size="9" font-weight="600" letter-spacing="0.6">ФУНКЦИИ</text>
  <text x="520"  y="226" text-anchor="middle" fill="#888" font-size="9" font-weight="600" letter-spacing="0.6">ФУНКЦИИ</text>
  <text x="710"  y="226" text-anchor="middle" fill="#888" font-size="9" font-weight="600" letter-spacing="0.6">ФУНКЦИИ</text>
  <text x="875"  y="226" text-anchor="middle" fill="#888" font-size="9" font-weight="600" letter-spacing="0.6">ФУНКЦИИ</text>

  <!-- Source functions -->
  <rect x="68"  y="233" width="154" height="18" rx="3" fill="#1e1e1e"/>
  <text x="145"  y="245" text-anchor="middle" fill="#bbb" font-size="10">Реестр НПА Казахстана</text>
  <rect x="68"  y="257" width="154" height="18" rx="3" fill="#1e1e1e"/>
  <text x="145"  y="269" text-anchor="middle" fill="#bbb" font-size="10">Тексты законов (HTML)</text>
  <rect x="68"  y="281" width="154" height="18" rx="3" fill="#1e1e1e"/>
  <text x="145"  y="293" text-anchor="middle" fill="#bbb" font-size="10">Ссылки между актами</text>

  <!-- Rust functions -->
  <rect x="248" y="233" width="164" height="18" rx="3" fill="#1e1e1e"/>
  <text x="330"  y="245" text-anchor="middle" fill="#bbb" font-size="10">Краулинг с Әділет</text>
  <rect x="248" y="257" width="164" height="18" rx="3" fill="#1e1e1e"/>
  <text x="330"  y="269" text-anchor="middle" fill="#bbb" font-size="10">Парсинг и хранение НПА</text>
  <rect x="248" y="281" width="164" height="18" rx="3" fill="#1e1e1e"/>
  <text x="330"  y="293" text-anchor="middle" fill="#bbb" font-size="10">Построение графа связей</text>
  <rect x="248" y="305" width="164" height="18" rx="3" fill="#1e1e1e"/>
  <text x="330"  y="317" text-anchor="middle" fill="#bbb" font-size="10">Фоновый worker</text>

  <!-- ML functions -->
  <rect x="438" y="233" width="164" height="18" rx="3" fill="#1e1e1e"/>
  <text x="520"  y="245" text-anchor="middle" fill="#bbb" font-size="10">BERT эмбеддинги</text>
  <rect x="438" y="257" width="164" height="18" rx="3" fill="#1e1e1e"/>
  <text x="520"  y="269" text-anchor="middle" fill="#bbb" font-size="10">Поиск схожих НПА</text>
  <rect x="438" y="281" width="164" height="18" rx="3" fill="#1e1e1e"/>
  <text x="520"  y="293" text-anchor="middle" fill="#bbb" font-size="10">Дубли и противоречия</text>
  <rect x="438" y="305" width="164" height="18" rx="3" fill="#1e1e1e"/>
  <text x="520"  y="317" text-anchor="middle" fill="#bbb" font-size="10">LLM-обзоры (Qwen)</text>

  <!-- Java functions -->
  <rect x="628" y="233" width="164" height="18" rx="3" fill="#1e1e1e"/>
  <text x="710"  y="245" text-anchor="middle" fill="#bbb" font-size="10">Агрегация Rust + ML</text>
  <rect x="628" y="257" width="164" height="18" rx="3" fill="#1e1e1e"/>
  <text x="710"  y="269" text-anchor="middle" fill="#bbb" font-size="10">SSE стриминг анализа</text>
  <rect x="628" y="281" width="164" height="18" rx="3" fill="#1e1e1e"/>
  <text x="710"  y="293" text-anchor="middle" fill="#bbb" font-size="10">Кэширование ответов</text>
  <rect x="628" y="305" width="164" height="18" rx="3" fill="#1e1e1e"/>
  <text x="710"  y="317" text-anchor="middle" fill="#bbb" font-size="10">Единое API для фронта</text>

  <!-- Frontend functions -->
  <rect x="818" y="233" width="114" height="18" rx="3" fill="#1e1e1e"/>
  <text x="875"  y="245" text-anchor="middle" fill="#bbb" font-size="10">Граф НПА</text>
  <rect x="818" y="257" width="114" height="18" rx="3" fill="#1e1e1e"/>
  <text x="875"  y="269" text-anchor="middle" fill="#bbb" font-size="10">Поиск по законам</text>
  <rect x="818" y="281" width="114" height="18" rx="3" fill="#1e1e1e"/>
  <text x="875"  y="293" text-anchor="middle" fill="#bbb" font-size="10">Сравнение актов</text>
  <rect x="818" y="305" width="114" height="18" rx="3" fill="#1e1e1e"/>
  <text x="875"  y="317" text-anchor="middle" fill="#bbb" font-size="10">AI-обзор корпуса</text>

  <line x1="60" y1="332" x2="940" y2="332" stroke="#2a2a2a" stroke-width="1"/>

  <!-- ============================================================ -->
  <!-- ROW: API / Endpoints -->
  <!-- ============================================================ -->
  <text x="145"  y="350" text-anchor="middle" fill="#888" font-size="9" font-weight="600" letter-spacing="0.6">ДАННЫЕ</text>
  <text x="330"  y="350" text-anchor="middle" fill="#888" font-size="9" font-weight="600" letter-spacing="0.6">API</text>
  <text x="520"  y="350" text-anchor="middle" fill="#888" font-size="9" font-weight="600" letter-spacing="0.6">API</text>
  <text x="710"  y="350" text-anchor="middle" fill="#888" font-size="9" font-weight="600" letter-spacing="0.6">API</text>
  <text x="875"  y="350" text-anchor="middle" fill="#888" font-size="9" font-weight="600" letter-spacing="0.6">ХРАНЕНИЕ</text>

  <text x="145"  y="367" text-anchor="middle" fill="#777" font-size="10">Коды НПА (seeds)</text>
  <text x="145"  y="382" text-anchor="middle" fill="#777" font-size="10">HTML разметка актов</text>

  <text x="330"  y="367" text-anchor="middle" fill="#777" font-size="10">GET /api/graph</text>
  <text x="330"  y="382" text-anchor="middle" fill="#777" font-size="10">GET /api/stats</text>
  <text x="330"  y="397" text-anchor="middle" fill="#777" font-size="10">GET /api/graph/refresh</text>

  <text x="520"  y="367" text-anchor="middle" fill="#777" font-size="10">POST /analyze</text>
  <text x="520"  y="382" text-anchor="middle" fill="#777" font-size="10">POST /search  /compare</text>
  <text x="520"  y="397" text-anchor="middle" fill="#777" font-size="10">POST /review  /corpus-review</text>

  <text x="710"  y="367" text-anchor="middle" fill="#777" font-size="10">GET /api/graph  /api/stats</text>
  <text x="710"  y="382" text-anchor="middle" fill="#777" font-size="10">GET /api/stream/analyze</text>
  <text x="710"  y="397" text-anchor="middle" fill="#777" font-size="10">POST /api/search  /compare</text>

  <text x="875"  y="367" text-anchor="middle" fill="#777" font-size="10">SQLite (граф + тексты)</text>
  <text x="875"  y="382" text-anchor="middle" fill="#777" font-size="10">HuggingFace cache</text>

  <!-- Vertical dividers -->
  <line x1="238" y1="62"  x2="238" y2="420" stroke="#2a2a2a" stroke-width="1"/>
  <line x1="428" y1="62"  x2="428" y2="420" stroke="#2a2a2a" stroke-width="1"/>
  <line x1="618" y1="62"  x2="618" y2="420" stroke="#2a2a2a" stroke-width="1"/>
  <line x1="808" y1="62"  x2="808" y2="420" stroke="#2a2a2a" stroke-width="1"/>

  <!-- Outer border of table -->
  <rect x="60" y="62" width="880" height="358" rx="6" fill="none" stroke="#444" stroke-width="1.5"/>

  <!-- ============================================================ -->
  <!-- DATA FLOW DIAGRAM -->
  <!-- ============================================================ -->
  <text x="480" y="448" text-anchor="middle" fill="#888" font-size="9" font-weight="700" letter-spacing="1.2">ПОТОК ДАННЫХ</text>

  <!-- Boxes -->
  <rect x="60"  y="458" width="110" height="34" rx="5" fill="#1e1e1e" stroke="#555" stroke-width="1"/>
  <text x="115" y="480" text-anchor="middle" fill="#ccc" font-size="11">Adilet.zan.kz</text>

  <rect x="225" y="458" width="110" height="34" rx="5" fill="#1e1e1e" stroke="#555" stroke-width="1"/>
  <text x="280" y="480" text-anchor="middle" fill="#ccc" font-size="11">Rust Service</text>

  <rect x="395" y="458" width="110" height="34" rx="5" fill="#1e1e1e" stroke="#555" stroke-width="1"/>
  <text x="450" y="480" text-anchor="middle" fill="#ccc" font-size="11">Python ML</text>

  <rect x="565" y="458" width="110" height="34" rx="5" fill="#1e1e1e" stroke="#555" stroke-width="1"/>
  <text x="620" y="480" text-anchor="middle" fill="#ccc" font-size="11">Java Backend</text>

  <rect x="735" y="458" width="110" height="34" rx="5" fill="#1e1e1e" stroke="#555" stroke-width="1"/>
  <text x="790" y="480" text-anchor="middle" fill="#ccc" font-size="11">React Frontend</text>

  <!-- Arrows flow -->
  <line x1="170" y1="475" x2="223" y2="475" stroke="#666" stroke-width="1.5" marker-end="url(#arr)"/>
  <line x1="335" y1="475" x2="393" y2="475" stroke="#666" stroke-width="1.5" marker-end="url(#arr)"/>
  <line x1="505" y1="475" x2="563" y2="475" stroke="#666" stroke-width="1.5" marker-end="url(#arr)"/>
  <line x1="675" y1="475" x2="733" y2="475" stroke="#666" stroke-width="1.5" marker-end="url(#arr)"/>

  <!-- Rust <-> ML bidirectional (below) -->
  <line x1="280" y1="492" x2="280" y2="508" stroke="#555" stroke-width="1" marker-end="url(#arr2)"/>
  <line x1="295" y1="508" x2="295" y2="492" stroke="#555" stroke-width="1" marker-end="url(#arr2)"/>
  <line x1="450" y1="492" x2="450" y2="508" stroke="#555" stroke-width="1" marker-end="url(#arr2)"/>
  <line x1="620" y1="492" x2="620" y2="508" stroke="#555" stroke-width="1" marker-end="url(#arr2)"/>

  <text x="197" y="470" fill="#666" font-size="9">краулинг</text>
  <text x="354" y="470" fill="#666" font-size="9">анализ</text>
  <text x="518" y="470" fill="#666" font-size="9">агрегация</text>
  <text x="686" y="470" fill="#666" font-size="9">REST/SSE</text>

  <!-- Docker label -->
  <rect x="60" y="500" width="880" height="28" rx="5" fill="#161616" stroke="#2a2a2a" stroke-width="1"/>
  <text x="480" y="518" text-anchor="middle" fill="#555" font-size="10">Docker Compose  —  bridge network  —  healthcheck + depends_on  —  persistent volumes: sqlite_data, huggingface_cache</text>
</svg>
